<svg width="461" height="466" viewBox="0 0 461 466" fill="none" xmlns="http://www.w3.org/2000/svg">
<path d="M413.158 378.702L393.337 393.879L409.089 371.895C396.679 353.176 376.382 336.999 376.382 336.999C376.382 336.999 334.272 370.555 334.272 396.932C334.272 423.31 353.125 432.52 376.382 432.52C399.638 432.52 418.491 423.31 418.491 396.932C418.491 391.061 416.402 384.835 413.158 378.702Z" fill="#84573E"/>
<path d="M388.24 394.701V396.001C388.147 411.114 385.082 422.906 379.069 431.209C378.984 431.331 378.891 431.447 378.806 431.569L378.133 431.228L377.491 430.893C384.161 421.927 386.522 409.254 386.607 396.072C386.614 395.647 386.622 395.216 386.614 394.784C386.591 389.204 386.181 383.559 385.523 378.075C385.477 377.65 385.423 377.219 385.368 376.788C384.455 369.553 383.14 362.64 381.793 356.635C381.7 356.21 381.6 355.785 381.499 355.367C379.17 345.21 376.794 337.853 376.252 336.225C376.191 336.025 376.152 335.916 376.144 335.89L376.879 335.716L376.887 335.71L377.63 335.536C377.638 335.562 377.769 335.929 377.986 336.611C378.814 339.16 380.965 346.079 383.078 355.206C383.171 355.618 383.271 356.043 383.364 356.468C384.463 361.34 385.539 366.786 386.39 372.501C386.607 373.937 386.8 375.353 386.97 376.749C387.032 377.181 387.086 377.612 387.133 378.037C387.845 383.965 388.214 389.519 388.24 394.701Z" fill="white"/>
<path d="M383.078 355.206C382.559 355.264 382.033 355.322 381.499 355.367C380.049 355.491 378.592 355.554 377.135 355.554C370.922 355.561 364.787 354.408 359.181 352.181C358.856 352.522 358.531 352.863 358.198 353.211C364.095 355.605 370.572 356.847 377.135 356.841C378.691 356.841 380.246 356.772 381.793 356.635C382.319 356.59 382.846 356.532 383.364 356.468C387.644 355.957 391.806 354.909 395.707 353.359C395.375 353.005 395.05 352.657 394.732 352.316C391.04 353.752 387.113 354.725 383.078 355.206Z" fill="white"/>
<path d="M386.97 376.749C386.436 376.775 385.903 376.788 385.369 376.788C385.206 376.794 385.036 376.794 384.873 376.794C378.142 376.794 371.51 375.441 365.543 372.848C359.577 370.256 354.452 366.502 350.607 361.907C350.297 362.286 349.988 362.666 349.686 363.052C353.694 367.702 358.976 371.491 365.096 374.104C371.215 376.718 377.994 378.081 384.873 378.082C385.09 378.082 385.307 378.082 385.523 378.075C386.065 378.069 386.599 378.056 387.133 378.037C395.396 377.685 403.361 375.361 410.078 371.343C409.83 370.963 409.583 370.583 409.327 370.203C402.8 374.148 395.03 376.423 386.97 376.749Z" fill="white"/>
<path d="M388.24 394.701C387.698 394.739 387.156 394.765 386.614 394.784C386.034 394.804 385.454 394.817 384.873 394.817C375.828 394.808 367.029 392.363 359.794 387.847C352.56 383.331 347.278 376.987 344.741 369.766C344.393 370.287 344.044 370.802 343.712 371.323C346.571 378.528 352.086 384.8 359.476 389.249C366.865 393.697 375.752 396.096 384.873 396.104C385.454 396.104 386.034 396.097 386.607 396.072C387.156 396.059 387.698 396.033 388.24 396.001C399.181 395.289 409.389 391.145 416.795 384.409C416.632 383.932 416.447 383.463 416.261 382.986C409.107 389.773 399.056 393.975 388.24 394.701Z" fill="white"/>
<path d="M341.88 139.007L126.291 116.146C125.711 116.084 125.126 116.052 124.54 116.051C123.963 116.05 123.387 116.08 122.814 116.142C122.243 116.203 121.677 116.295 121.12 116.417C120.556 116.543 120.003 116.698 119.463 116.882C118.935 117.063 118.42 117.27 117.922 117.502C117.417 117.736 116.929 117.995 116.46 118.277C115.981 118.566 115.522 118.878 115.085 119.211C114.634 119.553 114.206 119.915 113.801 120.295C113.387 120.687 112.996 121.096 112.632 121.521C112.263 121.951 111.918 122.399 111.595 122.864C111.272 123.33 110.972 123.815 110.696 124.319C110.419 124.822 110.167 125.343 109.939 125.881C109.703 126.437 109.497 127.005 109.319 127.585C109.141 128.166 108.993 128.757 108.874 129.357C108.757 129.958 108.668 130.568 108.605 131.187C108.543 131.807 108.512 132.435 108.512 133.069C108.515 133.704 108.546 134.336 108.605 134.966C108.665 135.596 108.754 136.221 108.874 136.841C108.994 137.464 109.143 138.08 109.321 138.69C109.498 139.3 109.705 139.903 109.941 140.499C110.169 141.075 110.421 141.638 110.698 142.187C110.974 142.737 111.274 143.272 111.597 143.793C111.919 144.313 112.265 144.818 112.633 145.308C113.001 145.8 113.391 146.274 113.803 146.729C114.216 147.184 114.644 147.618 115.087 148.032C115.53 148.442 115.989 148.83 116.462 149.194C116.935 149.558 117.422 149.898 117.924 150.214C118.419 150.527 118.934 150.819 119.465 151.088C120 151.36 120.553 151.606 121.121 151.826C121.673 152.04 122.238 152.227 122.816 152.385C123.382 152.54 123.958 152.667 124.542 152.764C125.12 152.86 125.705 152.926 126.293 152.962L341.882 166.078C342.509 166.116 343.139 166.064 343.745 165.923C344.053 165.852 344.354 165.759 344.644 165.647C344.947 165.53 345.238 165.394 345.517 165.24C345.799 165.085 346.068 164.914 346.323 164.729C346.591 164.535 346.845 164.328 347.084 164.109C347.336 163.878 347.573 163.636 347.794 163.384C348.023 163.125 348.244 162.848 348.455 162.555C348.666 162.262 348.866 161.956 349.054 161.637C349.242 161.318 349.418 160.987 349.582 160.644C349.746 160.301 349.899 159.946 350.038 159.579C350.178 159.212 350.305 158.835 350.42 158.446C350.541 158.044 350.646 157.635 350.733 157.219C350.821 156.803 350.896 156.38 350.958 155.951C351.018 155.523 351.063 155.088 351.093 154.648C351.123 154.208 351.138 153.763 351.138 153.313C351.136 152.864 351.121 152.417 351.093 151.971C351.065 151.526 351.02 151.084 350.958 150.646C350.898 150.207 350.823 149.772 350.733 149.341C350.644 148.91 350.54 148.483 350.42 148.061C350.305 147.653 350.178 147.254 350.038 146.865C349.9 146.48 349.748 146.102 349.582 145.729C349.416 145.356 349.24 144.994 349.054 144.644C348.866 144.294 348.667 143.955 348.455 143.626C348.243 143.297 348.023 142.984 347.794 142.687C347.566 142.39 347.329 142.108 347.084 141.842C346.838 141.576 346.585 141.327 346.323 141.095C346.069 140.868 345.799 140.653 345.517 140.449C345.24 140.25 344.948 140.066 344.644 139.897C344.357 139.737 344.056 139.595 343.745 139.471C343.447 139.352 343.139 139.252 342.823 139.173C342.515 139.096 342.199 139.041 341.88 139.007" fill="#4F7791"/>
<path d="M341.88 190.567L126.291 186.272C125.122 186.248 123.954 186.347 122.814 186.567C122.239 186.679 121.673 186.82 121.12 186.99C120.553 187.163 120 187.365 119.463 187.594C118.933 187.82 118.418 188.07 117.922 188.344C117.415 188.623 116.927 188.924 116.46 189.247C115.98 189.578 115.522 189.929 115.085 190.299C114.641 190.675 114.213 191.075 113.801 191.498C113.39 191.923 113 192.365 112.631 192.825C112.263 193.286 111.918 193.763 111.595 194.257C111.272 194.752 110.972 195.262 110.696 195.79C110.419 196.317 110.167 196.86 109.939 197.417C109.703 197.994 109.497 198.58 109.319 199.176C109.141 199.771 108.993 200.375 108.874 200.986C108.757 201.597 108.667 202.215 108.605 202.84C108.543 203.465 108.512 204.095 108.512 204.729C108.515 205.364 108.546 205.994 108.605 206.618C108.665 207.243 108.754 207.86 108.874 208.471C108.994 209.078 109.143 209.679 109.321 210.274C109.498 210.868 109.705 211.454 109.941 212.03C110.169 212.588 110.421 213.131 110.698 213.657C110.974 214.182 111.274 214.692 111.597 215.185C111.919 215.677 112.265 216.153 112.633 216.611C113.001 217.068 113.391 217.507 113.803 217.928C114.216 218.35 114.644 218.747 115.087 219.12C115.523 219.488 115.982 219.837 116.462 220.166C116.929 220.486 117.417 220.784 117.924 221.061C118.42 221.332 118.935 221.579 119.465 221.802C120.002 222.028 120.555 222.227 121.121 222.398C121.675 222.565 122.241 222.703 122.816 222.811C123.385 222.919 123.961 222.996 124.542 223.043C125.124 223.09 125.709 223.105 126.293 223.091L341.88 217.635C342.197 217.627 342.512 217.597 342.823 217.545C343.137 217.492 343.445 217.417 343.745 217.322C344.055 217.224 344.355 217.105 344.644 216.969C344.948 216.825 345.239 216.664 345.517 216.487C345.799 216.307 346.068 216.113 346.323 215.906C346.591 215.689 346.845 215.46 347.084 215.221C347.328 214.977 347.565 214.715 347.794 214.435C348.023 214.154 348.244 213.859 348.455 213.549C348.666 213.237 348.866 212.914 349.054 212.579C349.242 212.244 349.418 211.898 349.582 211.541C349.746 211.178 349.899 210.808 350.038 210.432C350.178 210.056 350.305 209.669 350.42 209.27C350.541 208.862 350.646 208.446 350.733 208.022C350.821 207.598 350.896 207.169 350.958 206.735C351.018 206.299 351.063 205.86 351.093 205.417C351.123 204.975 351.138 204.529 351.138 204.079C351.136 203.633 351.121 203.188 351.093 202.743C351.065 202.298 351.02 201.859 350.958 201.426C350.898 200.991 350.823 200.562 350.733 200.14C350.644 199.718 350.54 199.301 350.42 198.888C350.305 198.489 350.177 198.1 350.037 197.722C349.898 197.344 349.746 196.977 349.582 196.62C349.419 196.264 349.243 195.919 349.055 195.585C348.866 195.25 348.667 194.928 348.456 194.618C348.244 194.308 348.024 194.014 347.795 193.735C347.567 193.457 347.33 193.196 347.084 192.952C346.846 192.714 346.592 192.486 346.324 192.271C346.069 192.065 345.8 191.873 345.518 191.694C345.24 191.519 344.949 191.359 344.645 191.217C344.356 191.082 344.055 190.966 343.745 190.87C343.445 190.776 343.137 190.704 342.823 190.652C342.512 190.602 342.197 190.573 341.88 190.567Z" fill="#F2F2F2"/>
<path d="M341.88 238.904L126.291 252.018C125.703 252.054 125.119 252.12 124.54 252.216C123.956 252.313 123.38 252.44 122.814 252.595C122.237 252.753 121.671 252.94 121.12 253.153C120.551 253.374 119.999 253.62 119.463 253.892C118.932 254.161 118.417 254.453 117.922 254.766C117.42 255.084 116.933 255.425 116.46 255.786C115.988 256.149 115.529 256.537 115.085 256.948C114.641 257.36 114.213 257.794 113.801 258.251C113.39 258.709 113 259.183 112.632 259.673C112.263 260.164 111.918 260.669 111.595 261.189C111.272 261.709 110.972 262.245 110.696 262.794C110.419 263.344 110.167 263.907 109.939 264.483C109.703 265.078 109.497 265.681 109.319 266.292C109.141 266.903 108.993 267.518 108.874 268.138C108.757 268.759 108.668 269.384 108.605 270.014C108.543 270.643 108.512 271.276 108.512 271.91C108.515 272.545 108.546 273.173 108.605 273.792C108.665 274.412 108.754 275.023 108.874 275.623C108.994 276.226 109.143 276.816 109.321 277.396C109.498 277.976 109.705 278.544 109.941 279.101C110.169 279.639 110.421 280.159 110.698 280.663C110.974 281.166 111.274 281.651 111.597 282.118C111.919 282.584 112.265 283.032 112.633 283.46C112.998 283.885 113.388 284.294 113.803 284.686C114.208 285.066 114.636 285.429 115.087 285.771C115.524 286.103 115.983 286.415 116.462 286.704C116.93 286.986 117.418 287.245 117.924 287.479C118.422 287.712 118.937 287.919 119.465 288.099C120.005 288.284 120.558 288.439 121.121 288.564C121.678 288.687 122.244 288.779 122.816 288.84C123.388 288.901 123.965 288.931 124.542 288.93C125.128 288.929 125.713 288.898 126.293 288.836L341.88 265.98C342.199 265.946 342.515 265.89 342.823 265.814C343.139 265.734 343.447 265.635 343.745 265.516C344.056 265.392 344.357 265.249 344.644 265.09C344.948 264.921 345.24 264.737 345.517 264.538C345.799 264.334 346.069 264.119 346.323 263.891C346.582 263.659 346.835 263.41 347.084 263.144C347.328 262.879 347.565 262.597 347.794 262.3C348.023 262.002 348.244 261.689 348.455 261.361C348.666 261.034 348.866 260.695 349.054 260.343C349.242 259.991 349.418 259.629 349.582 259.258C349.746 258.886 349.899 258.505 350.038 258.115C350.178 257.726 350.305 257.327 350.42 256.919C350.541 256.496 350.646 256.07 350.733 255.638C350.821 255.207 350.896 254.772 350.958 254.333C351.018 253.895 351.063 253.453 351.093 253.008C351.123 252.563 351.138 252.115 351.138 251.665C351.135 251.218 351.12 250.774 351.092 250.334C351.064 249.894 351.019 249.46 350.957 249.031C350.897 248.601 350.823 248.177 350.733 247.761C350.644 247.345 350.54 246.935 350.42 246.534C350.305 246.145 350.178 245.767 350.038 245.401C349.9 245.035 349.749 244.68 349.583 244.336C349.417 243.993 349.241 243.662 349.055 243.343C348.865 243.027 348.665 242.722 348.453 242.427C348.241 242.133 348.021 241.856 347.792 241.598C347.571 241.346 347.334 241.104 347.082 240.873C346.843 240.654 346.589 240.447 346.322 240.253C346.066 240.068 345.797 239.897 345.515 239.742C345.237 239.588 344.945 239.452 344.642 239.335C344.352 239.223 344.051 239.13 343.743 239.059C343.137 238.919 342.507 238.866 341.88 238.904" fill="#F2F2F2"/>
<path d="M224.372 241.307C225.738 243.195 227.89 244.601 230.42 245.257C232.949 245.913 235.68 245.774 238.094 244.865C240.508 243.957 242.437 242.343 243.515 240.33C244.593 238.316 244.744 236.044 243.941 233.944L285.724 162.547L265.724 152.462L229.639 228.301C229.501 228.345 229.365 228.392 229.232 228.441C229.098 228.49 228.965 228.541 228.832 228.594C228.699 228.647 228.567 228.703 228.437 228.762C228.306 228.821 228.176 228.882 228.047 228.947C225.59 230.181 223.822 232.176 223.133 234.494C222.443 236.811 222.889 239.262 224.372 241.306L224.372 241.307Z" fill="#FFB8B8"/>
<path d="M277.748 190.078L248.065 183.75C248.065 183.75 249.034 181.928 250.609 178.909C252.184 175.89 254.385 171.681 256.861 166.901C259.336 162.122 262.083 156.782 264.766 151.503C267.448 146.224 270.057 141.009 272.255 136.488C274.453 131.968 276.949 129.26 279.458 127.743C281.534 126.43 284.15 125.852 286.736 126.134C288.746 126.383 290.667 126.991 292.368 127.917C293.173 128.333 293.929 128.811 294.628 129.344L301.511 139.754L277.748 190.078Z" fill="#CCCCCC"/>
<path d="M40.1945 184.424C39.4756 184.468 38.7604 184.545 38.052 184.656C37.339 184.767 36.634 184.911 35.9402 185.087C35.2358 185.266 34.5436 185.476 33.8666 185.718C33.1737 185.964 32.4968 186.241 31.8386 186.547C31.1946 186.848 30.5652 187.175 29.9504 187.529C29.3356 187.883 28.7385 188.263 28.1591 188.669C27.5803 189.075 27.0186 189.507 26.4739 189.966C25.9293 190.426 25.4046 190.91 24.8997 191.419C24.3948 191.929 23.9163 192.456 23.4641 193.002C23.012 193.548 22.5879 194.111 22.1917 194.69C21.7992 195.27 21.4321 195.865 21.0906 196.477C20.749 197.089 20.4385 197.714 20.1591 198.354C19.8678 199.018 19.6129 199.689 19.3943 200.367C19.1757 201.044 18.9934 201.728 18.8475 202.417C18.7009 203.106 18.591 203.799 18.5177 204.498C18.4444 205.196 18.4078 205.897 18.4078 206.601C18.4078 207.305 18.4444 208 18.5177 208.686C18.591 209.372 18.7009 210.048 18.8475 210.712C18.9934 211.377 19.1757 212.03 19.3943 212.671C19.6129 213.312 19.8669 213.94 20.1563 214.555C20.4382 215.148 20.7487 215.722 21.0878 216.277C21.423 216.826 21.7911 217.361 22.1907 217.879C22.5841 218.388 23.0089 218.879 23.4632 219.351C23.9132 219.821 24.3927 220.27 24.8996 220.697C25.3982 221.117 25.9237 221.515 26.4739 221.887C27.0127 222.252 27.5756 222.592 28.16 222.905C29.3133 223.522 30.5479 224.027 31.8396 224.411C33.1637 224.804 34.5397 225.064 35.9383 225.186C36.6398 225.246 37.3449 225.272 38.0501 225.263C38.7666 225.255 39.4819 225.213 40.1926 225.137C40.9097 225.061 41.6213 224.952 42.324 224.811C43.0288 224.669 43.7238 224.495 44.4059 224.291C45.0959 224.084 45.7722 223.847 46.432 223.58C47.1044 223.309 47.7598 223.009 48.3957 222.683C49.0149 222.362 49.6179 222.017 50.2047 221.649C50.7916 221.282 51.3601 220.89 51.9104 220.473C52.4606 220.057 52.9919 219.618 53.5042 219.156C54.0166 218.694 54.509 218.21 54.9816 217.703C55.4573 217.196 55.9051 216.674 56.3249 216.137C56.7447 215.6 57.1378 215.048 57.5043 214.483C57.8707 213.917 58.2097 213.338 58.5215 212.746C58.8333 212.154 59.1174 211.55 59.3739 210.933C59.6397 210.295 59.8722 209.651 60.0716 209.002C60.2709 208.352 60.4374 207.698 60.5709 207.04C60.7038 206.381 60.8038 205.718 60.8708 205.053C60.9379 204.387 60.9714 203.718 60.9714 203.047C60.9708 202.375 60.9373 201.712 60.8708 201.057C60.8044 200.402 60.7044 199.756 60.5709 199.12C60.438 198.485 60.2715 197.859 60.0716 197.242C59.8716 196.625 59.639 196.02 59.3739 195.426C59.1161 194.852 58.832 194.295 58.5215 193.755C58.2066 193.217 57.866 192.695 57.4996 192.189C56.7743 191.188 55.9308 190.25 54.9817 189.389C54.5159 188.966 54.024 188.563 53.508 188.181C52.9998 187.807 52.4678 187.456 51.9141 187.13C51.3658 186.807 50.7964 186.509 50.2085 186.238C49.621 185.967 49.0158 185.724 48.3957 185.51C47.1154 185.066 45.7765 184.75 44.4069 184.568C43.7176 184.477 43.0224 184.419 42.3249 184.396C41.6144 184.372 40.9028 184.382 40.1936 184.425" fill="#F2F2F2"/>
<path d="M40.1945 257.254C39.4756 257.299 38.7604 257.376 38.052 257.487C37.339 257.598 36.634 257.742 35.9402 257.918C35.2358 258.097 34.5436 258.307 33.8666 258.548C33.1737 258.795 32.4968 259.072 31.8386 259.377C31.1946 259.678 30.5652 260.006 29.9504 260.36C29.3356 260.714 28.7385 261.094 28.1591 261.5C27.5803 261.906 27.0186 262.338 26.4739 262.797C25.9293 263.256 25.4046 263.741 24.8997 264.25C24.3948 264.759 23.9163 265.287 23.4641 265.833C23.012 266.379 22.5879 266.941 22.1917 267.52C21.7992 268.1 21.4321 268.696 21.0906 269.308C20.749 269.919 20.4385 270.545 20.1591 271.185C19.8678 271.849 19.6129 272.52 19.3943 273.197C19.1757 273.875 18.9934 274.558 18.8475 275.247C18.7009 275.936 18.591 276.63 18.5177 277.329C18.4444 278.027 18.4078 278.728 18.4078 279.432C18.4078 280.136 18.4444 280.831 18.5177 281.517C18.591 282.203 18.7009 282.878 18.8475 283.543C18.9934 284.208 19.1757 284.861 19.3943 285.502C19.6129 286.143 19.8669 286.771 20.1563 287.385C20.4382 287.979 20.7487 288.553 21.0878 289.108C21.423 289.657 21.7911 290.192 22.1907 290.71C22.5841 291.219 23.0089 291.71 23.4632 292.182C23.9132 292.651 24.3927 293.101 24.8996 293.528C25.3982 293.948 25.9237 294.345 26.4739 294.718C27.0127 295.083 27.5756 295.423 28.16 295.735C29.3133 296.353 30.5479 296.858 31.8396 297.242C33.1637 297.635 34.5397 297.895 35.9383 298.016C36.6398 298.077 37.3449 298.102 38.0501 298.094C38.7666 298.085 39.4819 298.043 40.1926 297.968C40.9097 297.892 41.6213 297.783 42.324 297.641C43.0288 297.5 43.7238 297.326 44.4059 297.121C45.0959 296.914 45.7722 296.677 46.432 296.411C47.1044 296.14 47.7598 295.84 48.3957 295.514C49.0149 295.193 49.6179 294.848 50.2047 294.48C50.7916 294.112 51.3601 293.72 51.9104 293.304C52.4606 292.888 52.9919 292.449 53.5042 291.987C54.0166 291.525 54.509 291.041 54.9816 290.533C55.4573 290.027 55.9051 289.505 56.3249 288.968C56.7447 288.43 57.1378 287.879 57.5043 287.313C57.8707 286.748 58.2097 286.169 58.5215 285.577C58.8333 284.985 59.1174 284.381 59.3739 283.764C59.6397 283.126 59.8722 282.482 60.0716 281.832C60.2709 281.183 60.4374 280.529 60.5709 279.871C60.7038 279.212 60.8038 278.549 60.8708 277.883C60.9379 277.217 60.9714 276.549 60.9714 275.877C60.9708 275.206 60.9373 274.543 60.8708 273.888C60.8044 273.233 60.7044 272.587 60.5709 271.951C60.438 271.315 60.2715 270.689 60.0716 270.073C59.8716 269.456 59.639 268.851 59.3739 268.257C59.1161 267.683 58.832 267.126 58.5215 266.586C58.2066 266.048 57.866 265.526 57.4996 265.019C56.7743 264.019 55.9308 263.081 54.9817 262.22C54.5159 261.796 54.024 261.393 53.508 261.012C52.9998 260.638 52.4678 260.287 51.9141 259.961C51.3658 259.638 50.7964 259.34 50.2085 259.069C49.621 258.798 49.0158 258.555 48.3957 258.341C47.1154 257.897 45.7765 257.581 44.4069 257.399C43.7176 257.308 43.0224 257.25 42.3249 257.226C41.6144 257.203 40.9028 257.212 40.1936 257.256" fill="#F2F2F2"/>
<path d="M40.1982 105.525C39.4833 105.51 38.768 105.53 38.0557 105.583C37.3464 105.636 36.6413 105.723 35.9439 105.843C35.2426 105.965 34.5503 106.12 33.8703 106.308C33.1799 106.498 32.5029 106.72 31.8424 106.973C31.1959 107.221 30.5656 107.497 29.9542 107.8C29.3367 108.106 28.7388 108.439 28.1628 108.797C27.5776 109.16 27.0149 109.548 26.4768 109.959C25.9296 110.377 25.404 110.82 24.8997 111.288C24.3948 111.756 23.9163 112.245 23.4642 112.755C23.0121 113.265 22.5879 113.793 22.1917 114.34C21.7973 114.894 21.4294 115.462 21.0878 116.044C20.7463 116.626 20.4358 117.226 20.1563 117.846C19.8669 118.485 19.6129 119.135 19.3943 119.795C19.1757 120.455 18.9934 121.124 18.8475 121.801C18.7009 122.48 18.591 123.165 18.5177 123.855C18.4444 124.546 18.4078 125.243 18.4078 125.947C18.4078 126.65 18.4445 127.348 18.5177 128.039C18.591 128.731 18.7009 129.415 18.8475 130.092C18.9934 130.768 19.1757 131.436 19.3943 132.095C19.6129 132.753 19.8669 133.401 20.1563 134.039C20.4382 134.656 20.7487 135.255 21.0878 135.837C21.4294 136.417 21.7983 136.98 22.1944 137.525C22.5906 138.071 23.0148 138.597 23.4669 139.103C23.9184 139.612 24.3969 140.098 24.9024 140.563C25.4079 141.028 25.9327 141.467 26.4767 141.88C27.012 142.29 27.5719 142.676 28.1544 143.038C28.7304 143.392 29.3284 143.722 29.9457 144.024C30.5573 144.324 31.1876 144.597 31.834 144.841C32.4946 145.091 33.1717 145.309 33.8619 145.495C35.2202 145.861 36.6246 146.095 38.0473 146.193C39.4719 146.291 40.9054 146.255 42.3202 146.085C43.0217 146.001 43.7168 145.883 44.4022 145.733C45.0894 145.583 45.7658 145.4 46.4283 145.186C47.0986 144.97 47.7541 144.724 48.392 144.448C49.014 144.179 49.6191 143.884 50.2047 143.564C50.7938 143.242 51.3631 142.895 51.9104 142.525C52.4606 142.153 52.9919 141.757 53.5042 141.336C54.0166 140.916 54.5091 140.471 54.9816 140.002C55.4573 139.533 55.9051 139.047 56.3249 138.544C56.7447 138.041 57.1378 137.521 57.5043 136.985C57.8719 136.449 58.211 135.898 58.5215 135.331C58.832 134.764 59.1161 134.184 59.3739 133.59C59.6397 132.973 59.8722 132.348 60.0716 131.715C60.2709 131.082 60.4374 130.441 60.5709 129.793C60.7038 129.143 60.8038 128.488 60.8708 127.827C60.9379 127.166 60.9714 126.5 60.9714 125.829C60.9708 125.158 60.9373 124.492 60.8708 123.831C60.8044 123.171 60.7044 122.517 60.5709 121.87C60.438 121.223 60.2715 120.583 60.0716 119.95C59.8716 119.318 59.639 118.694 59.3739 118.079C59.1161 117.484 58.832 116.904 58.5215 116.339C58.211 115.774 57.8704 115.224 57.4996 114.688C57.1332 114.157 56.7401 113.641 56.3202 113.138C55.9004 112.636 55.4542 112.153 54.9816 111.688C54.5122 111.224 54.0209 110.782 53.508 110.364C52.995 109.946 52.4637 109.552 51.9141 109.184C51.3671 108.816 50.7982 108.472 50.2094 108.152C49.6236 107.835 49.0186 107.543 48.3966 107.277C47.7586 107.005 47.1031 106.762 46.433 106.549C45.7703 106.339 45.0938 106.16 44.4069 106.013C43.7212 105.866 43.0261 105.752 42.3249 105.672C41.6183 105.591 40.9067 105.543 40.1935 105.529M40.1935 103.591C43.3228 103.662 46.3919 104.323 49.1698 105.523C51.9303 106.724 54.3772 108.368 56.3687 110.36C58.4504 112.436 60.0717 114.804 61.1568 117.353C63.4806 122.838 63.4806 128.819 61.1568 134.304C60.0706 136.86 58.4496 139.236 56.3687 141.322C54.3769 143.324 51.9304 144.98 49.1689 146.195C46.3946 147.41 43.326 148.087 40.1926 148.176C37.0399 148.262 33.9058 147.743 31.0338 146.658C28.1344 145.553 25.5405 143.962 23.4148 141.985C21.1574 139.891 19.3907 137.464 18.2056 134.83C15.639 129.096 15.639 122.785 18.2056 117.051C19.3919 114.409 21.1582 111.974 23.4148 109.869C25.5399 107.881 28.133 106.276 31.0338 105.155C33.9036 104.055 37.0393 103.518 40.1982 103.588L40.1935 103.591Z" fill="#4F7791"/>
<path d="M40.1964 131.363L32.8587 118.649L34.6006 117.705L40.6444 128.15L66.0212 103.341L67.5574 104.703L40.1964 131.363Z" fill="#9EFF00"/>
<path d="M307.245 382.379L289.08 382.32L294.937 421.799L307.245 421.85V382.379Z" fill="#FFB8B8"/>
<path d="M310.383 431.783L270.72 431.609V431.192C270.719 430.345 270.819 429.501 271.016 428.67C271.406 427.032 272.184 425.474 273.303 424.087C274.44 422.682 275.898 421.476 277.593 420.537C279.266 419.612 281.142 418.972 283.114 418.655C284.114 418.495 285.13 418.417 286.148 418.423L310.383 418.522V431.783Z" fill="#1E1E1E"/>
<path d="M249.082 382.192L230.97 382.133L236.809 421.558L249.082 421.609V382.192Z" fill="#FFB8B8"/>
<path d="M252.212 431.527L212.654 431.354V430.937C212.654 430.092 212.753 429.248 212.95 428.419C213.339 426.783 214.114 425.228 215.231 423.842C216.364 422.438 217.818 421.233 219.51 420.295C221.178 419.372 223.05 418.734 225.017 418.418C226.014 418.258 227.028 418.18 228.044 418.186L252.212 418.284V431.527Z" fill="#1E1E1E"/>
<path d="M248.313 220.834L217.855 315.376L229.003 406.002L253.689 406.568L248.314 324.738L279.11 283.902L285.789 407.125L308.181 405.808L320.637 299.861C324.868 291.589 327.971 282.948 329.887 274.1C331.394 267.155 332.126 260.11 332.076 253.053C332.05 248.302 331.611 243.559 330.762 238.861C330.459 237.11 330.048 235.373 329.532 233.657L320.45 226L248.313 220.834Z" fill="#15133F"/>
<path d="M288.668 236.647C283.546 236.647 278.74 236.51 274.381 236.24C269.93 235.986 265.501 235.501 261.122 234.788C257.393 234.209 253.762 233.258 250.307 231.956C247.526 230.957 245.107 229.369 243.292 227.352L243.085 227.101L251.41 182.036L260.388 131.367C260.979 128.014 263.031 124.959 266.155 122.783C269.279 120.607 273.255 119.462 277.328 119.567L305.444 120.283C307.553 120.337 309.627 120.743 311.543 121.475C313.46 122.208 315.18 123.254 316.602 124.55C318.024 125.846 319.118 127.366 319.821 129.021C320.523 130.675 320.819 132.43 320.691 134.181L317 184.572L330.614 234.278L329.65 234.39C329.262 234.432 327.768 234.596 325.428 234.816C322.368 235.102 319.245 235.359 316.143 235.582C311.756 235.896 307.462 236.144 303.382 236.317C298.207 236.537 293.248 236.643 288.668 236.647Z" fill="#C0B9B9"/>
<path d="M273.066 110.613C273.058 110.613 273.051 110.613 273.043 110.613C272.453 110.612 271.869 110.515 271.325 110.327C270.78 110.139 270.285 109.864 269.868 109.517C269.451 109.17 269.12 108.758 268.895 108.304C268.67 107.851 268.554 107.365 268.554 106.874V86.0246C268.55 82.2891 269.449 78.5911 271.197 75.1503C274.621 68.4358 281.028 63.0792 289.082 60.1968C294.177 58.3793 299.734 57.6411 305.255 58.0483C310.777 58.4554 316.091 59.9951 320.721 62.5296C325.352 65.0641 329.155 68.5142 331.789 72.571C334.423 76.6278 335.806 81.1645 335.815 85.7751V106.657C335.815 107.159 335.694 107.657 335.459 108.119C334.997 109.022 334.134 109.742 333.05 110.128C332.494 110.325 331.895 110.428 331.29 110.429L273.062 110.613H273.066Z" fill="#1E1E1E"/>
<path d="M317.369 78.874C319.715 82.4371 320.738 86.4984 320.31 90.545C319.882 94.5916 318.022 98.442 314.965 101.61C311.907 104.778 307.79 107.121 303.132 108.343C298.475 109.566 293.486 109.613 288.797 108.479C285.691 107.737 282.794 106.489 280.272 104.809C277.75 103.129 275.655 101.049 274.106 98.6902C271.766 95.1287 270.747 91.0706 271.176 87.0277C271.605 82.9848 273.464 79.1381 276.517 75.9726C279.571 72.8071 283.684 70.4645 288.336 69.2402C292.988 68.0159 297.972 67.9647 302.66 69.093C305.768 69.8325 308.669 71.078 311.194 72.7571C313.719 74.4363 315.818 76.5157 317.369 78.8748V78.874Z" fill="#FFB8B8"/>
<path d="M260.604 87.7214C260.601 84.7671 261.311 81.8424 262.694 79.1211C265.401 73.8116 270.468 69.5762 276.838 67.2978C280.106 66.1331 283.622 65.5271 287.178 65.5157L292.195 65.4948C292.251 65.4945 292.308 65.4944 292.364 65.4945C295.838 65.4962 299.278 66.0671 302.487 67.1746C305.696 68.2821 308.611 69.9044 311.066 71.9489C313.521 73.9934 315.468 76.4202 316.796 79.0905C318.123 81.7609 318.805 84.6225 318.803 87.5122V87.9298L308.189 87.9654L304.57 79.5558L303.846 87.9817L298.364 88.0018L296.539 83.759L296.173 88.0073L260.608 88.1397L260.604 87.7214Z" fill="#1E1E1E"/>
<path d="M217.874 131.583C216.241 131.915 214.714 132.538 213.397 133.408C212.369 134.085 211.489 134.905 210.797 135.832C209.434 137.667 208.833 139.824 209.088 141.971C209.216 143.055 209.57 144.113 210.133 145.097C210.827 146.323 211.826 147.413 213.064 148.294C214.302 149.176 215.751 149.829 217.314 150.21C218.878 150.592 220.521 150.693 222.136 150.507C223.75 150.321 225.298 149.853 226.679 149.133C226.781 149.078 226.881 149.023 226.981 148.967C227.081 148.91 227.179 148.853 227.275 148.794C227.372 148.736 227.467 148.676 227.561 148.616C227.654 148.555 227.747 148.494 227.839 148.432L286.407 165.769C288.209 166.302 290.17 166.334 291.996 165.86C293.822 165.385 295.413 164.431 296.53 163.139L310.415 147.149L293.628 137.747L284.818 146.07L231.219 137.202C231.16 137.087 231.1 136.972 231.037 136.857C230.974 136.743 230.909 136.629 230.841 136.516C230.771 136.403 230.7 136.29 230.627 136.178C230.553 136.067 230.476 135.956 230.394 135.845C229.115 134.127 227.215 132.789 224.966 132.023C222.717 131.258 220.235 131.103 217.874 131.583Z" fill="#FFB8B8"/>
<path d="M285.763 140.821C287.515 139.002 289.965 136.641 292.453 134.299C294.942 131.957 297.468 129.636 299.373 127.9C301.278 126.163 302.56 125.013 302.56 125.013C304.319 122.801 306.943 121.164 309.988 120.38C313.033 119.595 316.311 119.711 319.264 120.709C322.218 121.707 324.665 123.524 326.191 125.852C327.716 128.18 328.225 130.876 327.632 133.481C327.293 134.98 326.593 136.408 325.574 137.676C325.574 137.676 323.663 139.756 320.779 142.86C317.895 145.964 314.036 150.097 310.143 154.205C306.251 158.313 302.32 162.399 299.29 165.416C296.259 168.433 294.126 170.382 293.826 170.215L283.255 144.079C282.954 143.912 284.011 142.64 285.763 140.821Z" fill="#C0B9B9"/>
<path d="M292.037 109.956C291.871 110.63 291.936 111.329 292.224 111.974C292.368 112.304 292.568 112.616 292.816 112.9C293.029 113.142 293.275 113.362 293.55 113.556C294.365 114.129 295.398 114.441 296.464 114.437C296.53 114.437 296.597 114.435 296.663 114.432C296.73 114.43 296.796 114.426 296.863 114.421C296.93 114.416 296.996 114.41 297.063 114.402C297.129 114.394 297.196 114.386 297.263 114.376L301.03 113.806L306.219 104.586V113.032L323.346 110.467V74.6289L294.634 74.7435L295.343 75.4292C297.699 77.73 299.247 80.5269 299.815 83.5119C300.372 86.5354 300.302 89.6158 299.608 92.6196C298.933 95.6591 297.91 98.6376 296.551 101.514C295.363 104.063 293.999 106.552 292.467 108.97C292.269 109.28 292.124 109.612 292.037 109.956Z" fill="#1E1E1E"/>
<path d="M93.1579 432.867H448.072C448.319 432.867 448.556 432.785 448.731 432.64C448.906 432.495 449.004 432.298 449.004 432.092C449.004 431.887 448.906 431.69 448.731 431.544C448.556 431.399 448.319 431.317 448.072 431.317H93.1579C92.9109 431.317 92.6739 431.399 92.4992 431.544C92.3245 431.69 92.2264 431.887 92.2264 432.092C92.2264 432.298 92.3245 432.495 92.4992 432.64C92.6739 432.785 92.9109 432.867 93.1579 432.867Z" fill="#F2F2F2"/>
</svg>
