<svg width="261" height="250" viewBox="0 0 261 250" fill="none" xmlns="http://www.w3.org/2000/svg">
<path d="M231.128 219.664C231.128 219.917 230.926 220.12 230.674 220.12H31.3376C31.0857 220.12 30.8835 219.917 30.8835 219.664C30.8835 219.411 31.0857 219.208 31.3376 219.208H230.674C230.926 219.208 231.128 219.411 231.128 219.664Z" fill="#F2F2F2"/>
<path d="M169.25 197.476L171.54 207.05L164.67 208.965L163.144 198.625L169.25 197.476Z" fill="#FFB6B6"/>
<path d="M180.318 166.458L173.067 172.585L168.487 179.861L174.975 184.073L186.043 171.436L180.318 166.458Z" fill="#FFB6B6"/>
<path d="M178.028 103.272L184.135 123.951C184.135 123.951 211.233 147.694 208.561 152.672C205.89 157.65 187.952 171.436 187.952 171.436C187.952 171.436 189.283 175.845 185.373 174.023C181.463 172.202 177.265 167.224 177.265 167.224C177.265 167.224 177.265 163.394 179.173 164.16C181.082 164.926 189.86 154.587 189.86 154.587L170.777 136.971V195.874C170.777 195.874 175.357 199.892 170.777 200.216C166.197 200.54 161.999 201.306 161.999 201.306C161.999 201.306 156.656 199.391 158.564 197.476L152.839 166.075L148.641 127.78L151.694 107.867L178.028 103.272Z" fill="#1E1E1E"/>
<path d="M165.815 205.901C165.815 205.901 166.197 204.369 167.724 204.369H172.386C172.386 204.369 173.83 210.88 173.449 210.88C173.067 210.88 179.555 219.304 172.685 219.687C165.815 220.07 163.907 219.304 163.907 219.304L163.144 216.281C163.144 216.281 161.999 214.326 162.381 212.794C162.762 211.262 165.815 205.901 165.815 205.901Z" fill="black"/>
<path d="M175.357 181.01C175.357 181.01 179.74 180.94 178.694 182.124C177.647 183.307 175.739 185.222 175.739 185.222C175.739 185.222 171.199 194.413 169.08 192.69C166.96 190.966 163.526 171.819 164.67 169.521C165.815 167.224 167.342 167.224 167.342 167.224L174.383 171.473C174.383 171.473 170.014 182.159 175.357 181.01Z" fill="black"/>
<path d="M164.67 70.7217L166.197 61.1481L155.892 56.9357L154.366 71.4876L164.67 70.7217Z" fill="#FFB6B6"/>
<path opacity="0.1" d="M164.67 70.7217L166.197 61.1481L155.892 56.9357L154.366 71.4876L164.67 70.7217Z" fill="black"/>
<path d="M153.793 69.3814L166.006 66.3178L178.983 70.5302C178.983 70.5302 184.707 86.6139 182.799 92.3581C180.891 98.1023 180.891 109.322 180.891 109.322C180.891 109.322 180.7 104.421 169.632 107.867C158.564 111.314 150.549 110.931 150.549 110.931L150.167 97.1449L145.373 84.8995C143.324 79.6655 145.533 73.723 150.497 71.1137L153.793 69.3814Z" fill="#C0B9B9"/>
<path d="M209.857 114.493C211.58 116.565 211.912 119.136 210.597 120.236C209.283 121.337 206.821 120.549 205.098 118.476C204.398 117.658 203.904 116.683 203.656 115.634L196.465 106.764L199.968 103.92L207.326 112.561C208.312 112.993 209.179 113.656 209.857 114.493V114.493Z" fill="#FFB6B6"/>
<path d="M178.428 70.6525L175.925 80.6L188.175 100.275L200.681 112.886L204.734 109.512L192.122 93.7666L182.562 73.4791L178.428 70.6525Z" fill="#C0B9B9"/>
<path d="M207.59 61.051C216.314 60.4041 222.725 50.9031 221.909 39.8298C221.094 28.7565 213.36 20.3043 204.637 20.9511C195.913 21.598 189.502 31.099 190.318 42.1723C191.133 53.2456 198.866 61.6978 207.59 61.051Z" fill="#4F7791"/>
<path d="M207.258 61.0511H206.495V137.425H207.258V61.0511Z" fill="#2F2E41"/>
<path d="M207.448 59.4382L207.54 62.1445L208.759 64.6498L203.673 64.3896L205.811 62.2322L205.569 59.7732L207.448 59.4382Z" fill="#4F7791"/>
<path d="M162.066 64.2256C167.87 64.2256 172.575 59.505 172.575 53.6818C172.575 47.8586 167.87 43.138 162.066 43.138C156.263 43.138 151.558 47.8586 151.558 53.6818C151.558 59.505 156.263 64.2256 162.066 64.2256Z" fill="#FFB6B6"/>
<path d="M161.228 39.5064C161.532 39.6845 161.939 39.415 162.037 39.0755C162.134 38.7361 162.021 38.3757 161.908 38.041L161.341 36.356C160.939 35.1609 160.512 33.9241 159.641 33.0146C158.327 31.6417 156.238 31.2925 154.357 31.5455C151.942 31.8704 149.56 33.1825 148.437 35.3522C147.314 37.5219 147.792 40.5494 149.821 41.903C146.929 45.2286 145.921 48.9348 146.08 53.3453C146.239 57.7558 151.03 61.8149 154.153 64.9219C154.851 64.4976 155.485 62.5091 155.102 61.7867C154.718 61.0643 155.268 60.2274 154.793 59.5621C154.317 58.8967 153.92 59.9562 154.4 59.2946C154.703 58.8771 153.52 57.9166 153.971 57.6667C156.15 56.4581 156.875 53.7328 158.243 51.6458C159.894 49.1285 162.72 47.4238 165.71 47.141C167.357 46.9852 169.096 47.2674 170.446 48.2268C171.796 49.1863 172.67 50.9007 172.357 52.5307C173.168 51.7047 173.572 50.4942 173.419 49.3449C173.267 48.1957 172.563 47.133 171.565 46.5481C172.172 44.5353 171.652 42.22 170.244 40.6624C168.836 39.1048 163.124 39.3701 161.069 39.78" fill="black"/>
<path d="M160.909 47.2021C158.186 47.497 156.22 49.8632 154.56 52.0485C153.604 53.308 152.601 54.6989 152.625 56.2824C152.65 57.8833 153.717 59.2564 154.226 60.7736C155.06 63.2535 154.248 66.204 152.264 67.9032C154.224 68.2764 156.343 66.8017 156.681 64.8289C157.075 62.5323 155.34 60.3157 155.546 57.9945C155.727 55.9494 157.333 54.3755 158.698 52.8465C160.064 51.3174 161.346 49.2884 160.718 47.3344" fill="black"/>
<path d="M150.887 110.739H72.3916C63.4902 110.739 56.2742 117.979 56.2742 126.911V203.283C56.2742 212.214 63.4902 219.454 72.3916 219.454H150.887C159.788 219.454 167.004 212.214 167.004 203.283V126.911C167.004 117.979 159.788 110.739 150.887 110.739V110.739Z" fill="white"/>
<path d="M150.887 219.837H72.3916C63.2941 219.837 55.8925 212.411 55.8925 203.283V126.911C55.8925 117.783 63.2941 110.356 72.3916 110.356H150.887C159.984 110.356 167.386 117.783 167.386 126.911V203.283C167.386 212.411 159.984 219.837 150.887 219.837ZM72.3916 111.122C63.7149 111.122 56.6559 118.205 56.6559 126.911V203.283C56.6559 211.989 63.7149 219.071 72.3916 219.071H150.887C159.563 219.071 166.622 211.989 166.622 203.283V126.911C166.622 118.205 159.563 111.122 150.887 111.122H72.3916Z" fill="#4F7791"/>
<path d="M142.604 118.252C143.609 118.252 144.424 117.435 144.424 116.426C144.424 115.417 143.609 114.6 142.604 114.6C141.599 114.6 140.784 115.417 140.784 116.426C140.784 117.435 141.599 118.252 142.604 118.252Z" fill="#4F7791"/>
<path d="M147.61 118.252C148.615 118.252 149.43 117.435 149.43 116.426C149.43 115.417 148.615 114.6 147.61 114.6C146.604 114.6 145.789 115.417 145.789 116.426C145.789 117.435 146.604 118.252 147.61 118.252Z" fill="#4F7791"/>
<path d="M152.615 118.252C153.62 118.252 154.435 117.435 154.435 116.426C154.435 115.417 153.62 114.6 152.615 114.6C151.61 114.6 150.795 115.417 150.795 116.426C150.795 117.435 151.61 118.252 152.615 118.252Z" fill="#4F7791"/>
<path d="M69.8184 192.717C69.2529 192.717 68.7929 193.179 68.7929 193.746C68.7929 194.023 68.8994 194.279 69.0927 194.468C69.2876 194.668 69.543 194.775 69.8184 194.775H151.912C152.478 194.775 152.938 194.314 152.938 193.746C152.938 193.47 152.831 193.214 152.638 193.025C152.443 192.824 152.188 192.717 151.912 192.717H69.8184Z" fill="#C0B9B9"/>
<path d="M113.715 192.374V195.118H69.8184C69.4424 195.118 69.1006 194.967 68.8545 194.713C68.6015 194.466 68.4511 194.123 68.4511 193.746C68.4511 192.992 69.0664 192.374 69.8184 192.374H113.715V192.374Z" fill="#4F7791"/>
<path d="M150.203 187.23H136.53C135.022 187.23 133.796 185.999 133.796 184.486C133.796 182.972 135.022 181.742 136.53 181.742H150.203C151.711 181.742 152.938 182.972 152.938 184.486C152.938 185.999 151.711 187.23 150.203 187.23Z" fill="#C0B9B9"/>
<path d="M98.8355 189.191L89.2772 156.967L88.5456 157.185L98.0703 189.296" fill="#2F2E41"/>
<path d="M99.1663 115.855C107.89 115.208 114.301 105.707 113.485 94.6333C112.67 83.5601 104.937 75.1078 96.2129 75.7546C87.4891 76.4015 81.0783 85.9025 81.8938 96.9758C82.7094 108.049 90.4425 116.501 99.1663 115.855Z" fill="#4F7791"/>
<path d="M98.8345 115.855H98.0712V192.228H98.8345V115.855Z" fill="#2F2E41"/>
<path d="M89.7068 156.033L90.5637 158.601L92.444 160.653L87.4959 161.859L88.9316 159.179L88.0011 156.892L89.7068 156.033Z" fill="#4F7791"/>
<path d="M99.0245 114.242L99.1161 116.948L100.335 119.453L95.2496 119.193L97.3873 117.036L97.1456 114.577L99.0245 114.242Z" fill="#4F7791"/>
<path d="M89.9639 156.706C98.1341 153.57 101.552 142.621 97.5982 132.25C93.6444 121.88 83.816 116.015 75.6459 119.151C67.4758 122.287 64.0578 133.236 68.0116 143.607C71.9654 153.977 81.7938 159.842 89.9639 156.706Z" fill="#4F7791"/>
<path d="M159.315 106.819C161.889 107.599 163.575 109.564 163.08 111.208C162.585 112.852 160.097 113.552 157.522 112.771C156.489 112.474 155.542 111.932 154.76 111.192L143.893 107.749L145.261 103.441L156.143 106.601C157.202 106.418 158.29 106.493 159.315 106.819Z" fill="#FFB6B6"/>
<path d="M140.435 78.5721L151.885 70.1473L151.503 86.231L140.817 100.017L152.267 104.612L151.885 111.174C151.885 111.174 137.382 107.676 135.092 107.293C132.802 106.91 130.894 101.549 130.894 101.549L140.435 78.5721Z" fill="#C0B9B9"/>
</svg>
