<svg width="859" height="664" viewBox="0 0 859 664" fill="none" xmlns="http://www.w3.org/2000/svg">
<path d="M452.313 632.861C473.512 632.861 490.698 611.827 490.698 585.881C490.698 559.935 473.512 538.901 452.313 538.901C431.113 538.901 413.928 559.935 413.928 585.881C413.928 611.827 431.113 632.861 452.313 632.861Z" fill="#4F7791"/>
<path d="M681.627 630.221C703.101 622.328 725.931 614.097 742.962 595.333C758.181 578.565 768.455 552.96 762.15 527.813C755.858 502.718 737.013 485.985 717.555 477.662C706.52 472.942 694.974 470.323 683.433 468.266C670.887 466.03 658.286 464.197 645.691 462.434C594.69 455.295 543.498 450.934 492.114 449.35C466.759 448.569 441.409 448.588 416.051 449.038C393.405 449.441 369.553 449.431 348.544 437.65C332.207 428.489 317.379 411.823 312.827 389.921C307.572 364.64 317.265 338.894 331.168 320.584C338.497 310.932 347.062 302.809 355.898 295.34C365.484 287.237 375.404 279.707 385.539 272.679C405.5 258.843 426.369 247.068 447.929 237.477C458.564 232.743 469.358 228.66 480.245 224.893C489.438 221.712 498.66 218.526 507.545 214.192C524.721 205.814 541.058 191.622 545.425 168.355C549.564 146.304 542.585 122.365 530.35 105.984C516.196 87.0314 494.853 78.7234 474.392 77.3792C451.42 75.8701 428.979 82.9064 407.387 91.8365C384.359 101.361 361.827 112.313 338.313 120.028C314.994 127.67 291.225 133.078 267.22 136.201C255.469 137.733 243.363 139.462 231.542 138.29C221.635 137.307 211.779 133.741 204.477 125.136C198.217 117.757 194.487 107.616 195.77 96.9149C196.002 94.9712 198.415 95.7975 198.184 97.7294C196.623 110.756 203.858 122.76 212.773 128.909C223.077 136.015 235.616 136.025 247.088 135.212C271.962 133.374 296.668 129.002 320.949 122.144C344.808 115.475 367.815 105.94 390.797 95.7548C412.623 86.0816 434.936 76.6405 458.254 74.5453C478.486 72.7273 499.77 76.3348 517.396 89.2756C532.886 100.649 544.277 119.615 547.907 141.38C551.454 162.648 546.542 184.055 533.388 198.897C519.768 214.263 501.093 220.833 483.69 226.884C461.617 234.558 440.017 243.529 419.109 255.177C397.917 266.95 377.593 280.935 358.361 296.977C339.797 312.503 321.477 332.038 315.606 359.737C312.871 372.639 313.376 386.323 317.952 398.51C322.021 409.346 328.722 418.461 336.529 425.491C355.154 442.265 378.629 445.709 401.128 446.052C426.396 446.437 451.665 445.393 476.942 445.901C528.455 446.935 579.863 450.773 631.165 457.413C644.02 459.079 656.859 460.92 669.682 462.936C681.215 464.75 692.788 466.552 704.127 469.773C724.289 475.501 743.909 486.514 756.441 507.436C762.003 516.505 765.448 527.252 766.41 538.531C767.287 550.3 764.933 562.091 760.585 572.561C750.962 595.735 732.937 610.475 713.794 620.158C703.542 625.345 692.907 629.274 682.292 633.176C680.746 633.744 680.085 630.788 681.627 630.221L681.627 630.221Z" fill="#F2F2F2"/>
<path d="M197.386 121.702C208.447 121.702 217.413 110.728 217.413 97.1906C217.413 83.6535 208.447 72.6795 197.386 72.6795C186.325 72.6795 177.359 83.6535 177.359 97.1906C177.359 110.728 186.325 121.702 197.386 121.702Z" fill="#F2F2F2"/>
<path d="M336.323 168.171C347.384 168.171 356.35 157.197 356.35 143.66C356.35 130.123 347.384 119.149 336.323 119.149C325.262 119.149 316.296 130.123 316.296 143.66C316.296 157.197 325.262 168.171 336.323 168.171Z" fill="#F2F2F2"/>
<path d="M453.982 75.2328C465.042 75.2328 474.008 64.2588 474.008 50.7216C474.008 37.1845 465.042 26.2105 453.982 26.2105C442.921 26.2105 433.955 37.1845 433.955 50.7216C433.955 64.2588 442.921 75.2328 453.982 75.2328Z" fill="#F2F2F2"/>
<path d="M527.414 179.405C538.474 179.405 547.441 168.431 547.441 154.894C547.441 141.357 538.474 130.383 527.414 130.383C516.353 130.383 507.387 141.357 507.387 154.894C507.387 168.431 516.353 179.405 527.414 179.405Z" fill="#F2F2F2"/>
<path d="M428.113 299.918C439.174 299.918 448.14 288.944 448.14 275.407C448.14 261.87 439.174 250.896 428.113 250.896C417.053 250.896 408.086 261.87 408.086 275.407C408.086 288.944 417.053 299.918 428.113 299.918Z" fill="#F2F2F2"/>
<path d="M302.11 358.132C313.171 358.132 322.137 347.158 322.137 333.621C322.137 320.084 313.171 309.11 302.11 309.11C291.05 309.11 282.083 320.084 282.083 333.621C282.083 347.158 291.05 358.132 302.11 358.132Z" fill="#F2F2F2"/>
<path d="M435.623 449.027C446.684 449.027 455.65 438.053 455.65 424.516C455.65 410.979 446.684 400.005 435.623 400.005C424.563 400.005 415.596 410.979 415.596 424.516C415.596 438.053 424.563 449.027 435.623 449.027Z" fill="#F2F2F2"/>
<path d="M579.15 500.092C590.211 500.092 599.177 489.118 599.177 475.581C599.177 462.044 590.211 451.07 579.15 451.07C568.089 451.07 559.123 462.044 559.123 475.581C559.123 489.118 568.089 500.092 579.15 500.092Z" fill="#F2F2F2"/>
<path d="M746.876 488.858C757.936 488.858 766.903 477.884 766.903 464.347C766.903 450.81 757.936 439.836 746.876 439.836C735.815 439.836 726.849 450.81 726.849 464.347C726.849 477.884 735.815 488.858 746.876 488.858Z" fill="#F2F2F2"/>
<path d="M448.201 95.6622C388.21 96.1808 339.09 155.847 338.238 229.265C338.23 229.942 338.227 234.708 338.227 240.942C338.228 250.082 341.194 258.848 346.475 265.311C351.755 271.774 358.917 275.406 366.385 275.407H366.385C370.087 275.406 373.753 274.512 377.172 272.777C380.592 271.041 383.699 268.498 386.315 265.292C388.931 262.087 391.006 258.282 392.42 254.095C393.834 249.907 394.561 245.42 394.557 240.889C394.554 236.649 394.553 233.714 394.553 233.534C394.551 222.187 396.962 211.035 401.55 201.175C406.137 191.315 412.743 183.087 420.717 177.299C428.691 171.512 437.759 168.364 447.028 168.167C456.298 167.969 465.449 170.728 473.583 176.172C481.717 181.617 488.553 189.559 493.418 199.217C498.284 208.876 501.011 219.918 501.332 231.258C501.653 242.597 499.556 253.844 495.248 263.891C490.941 273.939 484.57 282.441 476.764 288.561L476.773 288.575C476.773 288.575 436.696 320.153 424.477 363.472L424.488 363.475C422.339 372.35 421.25 381.558 421.255 390.813C421.255 394.618 421.438 427.908 421.792 454.928C421.915 464.251 425.028 473.141 430.459 479.679C435.89 486.218 443.204 489.881 450.822 489.879H450.822C454.65 489.879 458.441 488.952 461.975 487.153C465.509 485.353 468.718 482.716 471.416 479.392C474.115 476.069 476.25 472.126 477.698 467.789C479.147 463.452 479.88 458.808 479.856 454.123C479.734 429.378 479.667 400.564 479.667 398.473C479.667 371.874 500.633 345.371 517.855 328.088C537.687 308.186 551.958 281.065 557.69 250.47C558.958 244.172 559.657 237.721 559.775 231.236C559.775 213.349 556.883 195.639 551.266 179.127C545.649 162.614 537.418 147.625 527.047 135.023C516.676 122.421 504.369 112.455 490.837 105.7C477.305 98.9443 462.815 95.533 448.201 95.6622Z" fill="#4F7791"/>
<path d="M796.185 634.149H93.327C93.064 634.148 92.812 634.02 92.6263 633.792C92.4406 633.564 92.3363 633.255 92.3363 632.933C92.3363 632.611 92.4406 632.302 92.6263 632.075C92.812 631.847 93.064 631.718 93.327 631.717H796.185C796.448 631.717 796.701 631.845 796.888 632.073C797.074 632.301 797.179 632.611 797.179 632.933C797.179 633.256 797.074 633.565 796.888 633.793C796.701 634.021 796.448 634.149 796.185 634.149Z" fill="#F2F2F2"/>
<path d="M616.872 305.181C630.697 305.181 641.905 291.464 641.905 274.542C641.905 257.621 630.697 243.903 616.872 243.903C603.046 243.903 591.838 257.621 591.838 274.542C591.838 291.464 603.046 305.181 616.872 305.181Z" fill="#1E1E1E"/>
<path d="M570.488 620.737H560.258L555.391 572.442H570.49L570.488 620.737Z" fill="#A0616A"/>
<path d="M552.95 617.159H572.68V632.363H540.528C540.528 630.366 540.849 628.389 541.474 626.545C542.098 624.7 543.013 623.024 544.166 621.612C545.32 620.2 546.689 619.08 548.197 618.316C549.704 617.552 551.319 617.159 552.95 617.159Z" fill="#1E1E1E"/>
<path d="M649.761 620.737H639.531L634.664 572.442H649.764L649.761 620.737Z" fill="#A0616A"/>
<path d="M632.224 617.159H651.954V632.363H619.801C619.801 630.366 620.123 628.389 620.747 626.545C621.371 624.7 622.286 623.024 623.44 621.612C624.593 620.2 625.963 619.08 627.47 618.316C628.977 617.552 630.592 617.159 632.224 617.159Z" fill="#1E1E1E"/>
<path d="M612.943 305.199C624.262 305.199 633.438 293.969 633.438 280.115C633.438 266.262 624.262 255.031 612.943 255.031C601.624 255.031 592.448 266.262 592.448 280.115C592.448 293.969 601.624 305.199 612.943 305.199Z" fill="#A0616A"/>
<path d="M625.159 386.121L634.329 360.334C636.556 354.284 637.195 347.538 636.156 341.025C635.117 334.513 632.453 328.556 628.53 323.976C627.724 323.001 626.869 322.09 625.968 321.249C621.443 316.916 615.867 314.555 610.122 314.539C606.259 314.557 602.445 315.595 598.94 317.582C598.639 317.746 598.348 317.919 598.047 318.093C597.471 318.43 596.904 318.798 596.353 319.175C592.761 321.7 589.704 325.222 587.428 329.459C585.152 333.695 583.722 338.527 583.252 343.564L579.205 385.07C578.187 388.327 541.872 505.981 554.572 595.804C554.707 596.763 555.089 597.644 555.663 598.319C556.236 598.993 556.971 599.425 557.76 599.552L570.635 601.697C571.576 601.854 572.53 601.57 573.305 600.901C574.081 600.232 574.621 599.228 574.816 598.092L596.42 472.053C596.555 471.27 596.9 470.565 597.401 470.05C597.901 469.536 598.528 469.241 599.182 469.214C599.835 469.187 600.477 469.429 601.005 469.901C601.533 470.373 601.917 471.048 602.094 471.818L632.619 604.362C632.836 605.325 633.306 606.175 633.955 606.78C634.605 607.385 635.399 607.712 636.215 607.712C636.459 607.71 636.702 607.683 636.941 607.63L652.671 603.923C653.585 603.714 654.403 603.094 654.963 602.185C655.523 601.277 655.786 600.144 655.7 599.011C653.388 567.463 641.105 409.438 625.159 386.121Z" fill="#15133F"/>
<path d="M533.294 300.99C533.152 302.481 533.278 303.993 533.665 305.418C534.051 306.843 534.689 308.146 535.531 309.237C536.374 310.328 537.402 311.18 538.543 311.732C539.684 312.284 540.91 312.523 542.134 312.432L553.59 346.127L562.256 330.405L550.049 300.818C549.788 298.31 548.785 296.007 547.229 294.344C545.674 292.681 543.674 291.775 541.609 291.796C539.544 291.817 537.556 292.765 536.024 294.459C534.491 296.154 533.52 298.478 533.294 300.99L533.294 300.99Z" fill="#A0616A"/>
<path d="M611.807 420.049C613.025 419.871 614.196 419.368 615.238 418.576C616.28 417.784 617.168 416.722 617.838 415.464C618.508 414.207 618.945 412.785 619.118 411.299C619.291 409.812 619.195 408.298 618.838 406.861L642.942 385.375L628.43 378.724L607.766 400.147C605.834 401.042 604.238 402.773 603.279 405.011C602.32 407.25 602.065 409.842 602.564 412.295C603.062 414.748 604.278 416.893 605.981 418.322C607.685 419.751 609.757 420.366 611.807 420.049Z" fill="#A0616A"/>
<path d="M572.513 368.591C571.589 368.59 570.668 368.479 569.761 368.259C567.569 367.748 565.513 366.585 563.774 364.873C562.035 363.16 560.668 360.95 559.791 358.438L543.741 334.485C543.402 333.979 543.155 333.39 543.017 332.757C542.879 332.124 542.853 331.463 542.94 330.817C543.028 330.17 543.228 329.555 543.526 329.011C543.824 328.467 544.213 328.007 544.668 327.662L556.087 319.011C556.509 318.692 556.978 318.478 557.468 318.381C557.957 318.285 558.457 318.308 558.94 318.45C559.422 318.591 559.876 318.848 560.277 319.206C560.678 319.563 561.016 320.015 561.274 320.533L572.586 343.343L594.25 323.748C595.975 322.641 597.967 322.33 599.864 322.873C601.76 323.416 603.434 324.776 604.579 326.704C605.724 328.632 606.264 331 606.1 333.375C605.936 335.751 605.08 337.974 603.687 339.641L582.065 363.781C579.524 366.863 576.091 368.592 572.513 368.591Z" fill="#15133F"/>
<path d="M631.051 404.615C631.021 404.615 630.992 404.615 630.962 404.614C630.436 404.598 629.918 404.447 629.442 404.171C628.966 403.895 628.543 403.499 628.2 403.01L618.048 388.514C617.702 388.021 617.445 387.443 617.296 386.819C617.146 386.195 617.106 385.539 617.179 384.895C617.251 384.251 617.435 383.633 617.717 383.082C617.999 382.531 618.374 382.06 618.816 381.699L637.826 366.188L620.604 340.847C619.602 338.803 619.235 336.386 619.568 334.038C619.902 331.69 620.916 329.567 622.423 328.057C623.93 326.548 625.831 325.752 627.778 325.816C629.725 325.88 631.588 326.799 633.027 328.405L653.958 353.44C655.605 355.282 656.863 357.586 657.622 360.153C658.382 362.721 658.622 365.476 658.32 368.182C658.018 370.887 657.185 373.463 655.891 375.688C654.597 377.913 652.881 379.72 650.891 380.954L633.783 403.171C633.432 403.627 633.009 403.99 632.539 404.238C632.069 404.486 631.562 404.614 631.051 404.615Z" fill="#15133F"/>
<path d="M607.732 351.202C607.569 351.202 607.406 351.189 607.245 351.164C606.538 351.059 605.87 350.707 605.321 350.152C604.772 349.596 604.365 348.86 604.148 348.03L596.519 319.403C596.328 318.68 596.358 317.896 596.602 317.196C596.847 316.497 597.29 315.93 597.85 315.6L598.097 315.456C598.322 315.326 598.544 315.197 598.771 315.073C602.328 313.054 606.2 312 610.122 311.986C615.213 311.997 620.19 313.827 624.442 317.252C625.012 317.716 625.411 318.436 625.551 319.257C625.692 320.077 625.564 320.932 625.194 321.638L610.883 349.078C610.548 349.729 610.083 350.266 609.532 350.638C608.98 351.009 608.361 351.203 607.732 351.202Z" fill="#C0B9B9"/>
<path d="M636.484 260.703C641.008 260.703 644.676 256.214 644.676 250.677C644.676 245.14 641.008 240.652 636.484 240.652C631.96 240.652 628.293 245.14 628.293 250.677C628.293 256.214 631.96 260.703 636.484 260.703Z" fill="#1E1E1E"/>
<path d="M608.403 239.657C602.649 239.657 597.13 242.455 593.061 247.435C588.993 252.415 586.707 259.169 586.707 266.211V277.445H597.996L603.396 266.211L605.016 277.445H639.278L630.099 266.211C630.099 259.169 627.813 252.415 623.744 247.435C619.675 242.455 614.157 239.657 608.403 239.657Z" fill="#1E1E1E"/>
<path d="M640.694 243.81C641.6 240.343 643.476 237.378 645.991 235.437C648.506 233.495 651.5 232.7 654.447 233.193C659.667 234.261 663.795 239.397 666.254 245.133C668.713 250.869 669.849 257.289 671.502 263.443C673.155 269.597 675.5 275.784 679.674 279.767C683.848 283.751 690.253 284.831 694.352 280.733C693.884 285.004 692.33 288.986 689.911 292.117C687.492 295.248 684.33 297.369 680.873 298.18C677.415 298.991 673.836 298.451 670.643 296.636C667.45 294.821 664.804 291.824 663.079 288.068C660.916 283.358 660.357 277.837 659.716 272.492C659.075 267.146 658.241 261.615 655.659 257.233C653.076 252.851 648.242 249.989 644.14 251.985L640.694 243.81Z" fill="#1E1E1E"/>
<path d="M374.336 259.105C366.868 259.104 359.706 255.473 354.425 249.01C349.145 242.546 346.178 233.781 346.178 224.641C346.177 218.407 346.181 213.641 346.189 212.963C346.426 191.611 350.82 170.636 359.005 151.778C345.557 174.311 338.162 201.402 337.844 229.304C337.836 229.981 337.833 234.748 337.833 240.981C337.834 250.121 340.8 258.887 346.081 265.35C351.361 271.814 358.523 275.445 365.991 275.446C372.128 275.443 378.096 272.989 382.989 268.456C387.882 263.923 391.432 257.56 393.101 250.332C387.945 255.991 381.261 259.116 374.336 259.105Z" fill="#20435A"/>
<path d="M450.109 168.282C458.743 168.787 467.147 171.849 474.601 177.204C482.055 182.56 488.335 190.05 492.903 199.03C497.471 208.011 500.189 218.215 500.825 228.764C501.461 239.314 499.996 249.896 496.555 259.6C501.532 252.445 505.191 244.061 507.281 235.019C509.371 225.977 509.843 216.49 508.666 207.204C507.489 197.919 504.689 189.053 500.459 181.211C496.228 173.37 490.666 166.737 484.151 161.765C477.636 156.793 470.322 153.599 462.707 152.4C455.092 151.202 447.355 152.027 440.024 154.819C432.693 157.612 425.941 162.306 420.227 168.582C414.512 174.859 409.971 182.569 406.912 191.188C412.199 183.576 418.843 177.553 426.333 173.581C433.822 169.61 441.957 167.797 450.109 168.282Z" fill="#20435A"/>
<path d="M458.773 473.578C451.154 473.58 443.841 469.916 438.41 463.378C432.979 456.839 429.866 447.949 429.742 438.626C429.389 411.607 429.206 378.317 429.206 374.512C429.201 365.256 430.29 356.048 432.438 347.174L432.428 347.171C433.697 342.716 435.229 338.381 437.012 334.199C431.537 343.13 427.179 353.009 424.083 363.511L424.093 363.515C421.945 372.389 420.856 381.597 420.861 390.853C420.861 394.657 421.044 427.947 421.397 454.967C421.521 464.29 424.634 473.18 430.065 479.718C435.496 486.257 442.81 489.92 450.428 489.918C456.71 489.917 462.821 487.423 467.847 482.811C472.872 478.198 476.54 471.716 478.301 464.336C472.963 470.293 465.996 473.59 458.773 473.578Z" fill="#20435A"/>
<path d="M197.927 621.203L208.156 621.202L213.024 572.907L197.924 572.908L197.927 621.203Z" fill="#FFB8B8"/>
<path d="M227.887 632.827L195.735 632.829L195.734 617.625L215.464 617.624C218.759 617.624 221.918 619.226 224.248 622.077C226.578 624.928 227.887 628.795 227.887 632.827L227.887 632.827Z" fill="#1E1E1E"/>
<path d="M161.211 621.203L171.44 621.202L176.308 572.907L161.208 572.908L161.211 621.203Z" fill="#FFB8B8"/>
<path d="M191.171 632.827L159.019 632.829L159.018 617.625L178.748 617.624C182.042 617.624 185.202 619.226 187.532 622.077C189.862 624.928 191.171 628.795 191.171 632.827L191.171 632.827Z" fill="#1E1E1E"/>
<path d="M170.151 606.349L160.158 605.706C159.643 605.673 159.138 605.515 158.673 605.241C158.208 604.968 157.792 604.584 157.449 604.112C157.106 603.64 156.843 603.09 156.675 602.493C156.507 601.895 156.438 601.263 156.471 600.633L168.414 438.792L223.414 456.957L228.713 455.188L212.142 598.46C212.001 599.538 211.564 600.524 210.902 601.257C210.241 601.989 209.396 602.424 208.505 602.489L197.734 603.103C197.195 603.139 196.656 603.039 196.151 602.807C195.645 602.576 195.185 602.219 194.798 601.759C194.411 601.298 194.107 600.745 193.904 600.133C193.701 599.522 193.604 598.865 193.618 598.205L195.57 512.216C195.579 511.818 195.466 511.431 195.254 511.13C195.041 510.829 194.744 510.637 194.421 510.59C194.099 510.544 193.773 510.648 193.51 510.88C193.246 511.113 193.063 511.458 192.997 511.848L174.175 602.552C173.997 603.628 173.52 604.595 172.825 605.289C172.129 605.983 171.259 606.36 170.362 606.357C170.292 606.357 170.221 606.354 170.151 606.349Z" fill="#15133F"/>
<path d="M199.764 306.372C211.083 306.372 220.259 295.142 220.259 281.288C220.259 267.435 211.083 256.204 199.764 256.204C188.444 256.204 179.268 267.435 179.268 281.288C179.268 295.142 188.444 306.372 199.764 306.372Z" fill="#FFB8B8"/>
<path d="M165.641 354.984L167.894 414.492L168.709 436.142C168.741 437.085 169.003 437.994 169.46 438.754C169.917 439.513 170.548 440.089 171.274 440.407L224.125 463.839C224.552 464.033 225.005 464.13 225.46 464.125C225.981 464.128 226.496 464.003 226.976 463.756C227.457 463.51 227.891 463.148 228.255 462.692C228.618 462.235 228.902 461.694 229.091 461.1C229.279 460.506 229.368 459.872 229.352 459.235L227.185 352.237C227.043 343.458 224.402 335.015 219.719 328.364C215.036 321.712 208.604 317.269 201.531 315.8C201.019 315.704 200.499 315.609 199.979 315.524C195.593 314.858 191.142 315.376 186.937 317.041C182.732 318.707 178.877 321.481 175.642 325.166C172.293 328.937 169.661 333.562 167.933 338.714C166.204 343.866 165.422 349.421 165.641 354.984L165.641 354.984Z" fill="#C0B9B9"/>
<path d="M249.372 451.964C248.122 451.49 246.98 450.664 246.037 449.553C245.094 448.442 244.377 447.077 243.941 445.566C243.506 444.055 243.365 442.441 243.53 440.852C243.696 439.263 244.162 437.743 244.892 436.414L226.97 407.245L242.436 406.074L257.084 433.952C258.652 435.436 259.744 437.548 260.166 439.919C260.589 442.289 260.317 444.766 259.397 446.914C258.477 449.063 256.968 450.747 255.135 451.671C253.302 452.594 251.262 452.698 249.372 451.964H249.372Z" fill="#FFB8B8"/>
<path d="M236.771 431.135C236.296 430.899 235.864 430.551 235.5 430.109C235.136 429.668 234.847 429.142 234.65 428.563L207.649 349.827C207.119 348.285 206.843 346.631 206.835 344.959C206.828 343.286 207.09 341.629 207.607 340.08C208.123 338.532 208.884 337.123 209.846 335.935C210.807 334.747 211.951 333.802 213.211 333.155C214.471 332.507 215.822 332.17 217.189 332.163C218.555 332.155 219.909 332.477 221.174 333.111C222.439 333.744 223.589 334.676 224.559 335.854C225.529 337.032 226.301 338.432 226.828 339.975L253.83 418.712C254.229 419.879 254.233 421.193 253.842 422.364C253.451 423.535 252.696 424.469 251.743 424.96L239.756 431.118C239.284 431.362 238.777 431.49 238.265 431.493C237.752 431.496 237.245 431.374 236.771 431.135L236.771 431.135Z" fill="#C0B9B9"/>
<path d="M193.174 428.358L219.109 367.582C219.609 366.413 220.467 365.535 221.496 365.14C222.524 364.745 223.639 364.865 224.595 365.474L262.239 389.536C263.194 390.148 263.911 391.199 264.234 392.458C264.557 393.717 264.458 395.081 263.96 396.251L238.026 457.027C237.526 458.196 236.668 459.075 235.639 459.47C234.61 459.865 233.496 459.744 232.54 459.135L194.896 435.073C193.941 434.461 193.223 433.41 192.901 432.151C192.578 430.892 192.676 429.528 193.174 428.358Z" fill="#4F7791"/>
<path d="M210.567 400.591C210.106 399.092 209.365 397.745 208.403 396.659C207.441 395.572 206.285 394.776 205.027 394.333C203.769 393.891 202.444 393.814 201.158 394.11C199.872 394.405 198.659 395.065 197.618 396.036L172.77 375.861L172.727 394.826L196.331 411.077C197.634 412.905 199.421 414.114 201.379 414.49C203.337 414.867 205.341 414.388 207.04 413.137C208.738 411.886 210.022 409.943 210.667 407.649C211.312 405.355 211.277 402.856 210.567 400.591Z" fill="#FFB8B8"/>
<path d="M179.149 404.856L158.841 385.168C156.644 384.265 154.659 382.723 153.056 380.674C151.454 378.626 150.281 376.132 149.639 373.406C148.997 370.681 148.905 367.806 149.371 365.027C149.836 362.249 150.846 359.65 152.313 357.454L170.752 327.878C172.034 325.962 173.836 324.674 175.829 324.25C177.822 323.825 179.874 324.294 181.609 325.568C183.343 326.843 184.645 328.839 185.276 331.192C185.907 333.544 185.826 336.097 185.046 338.382L170.457 367.591L191.897 380.037C192.396 380.326 192.838 380.742 193.196 381.256C193.554 381.771 193.818 382.372 193.972 383.021C194.125 383.669 194.165 384.351 194.087 385.019C194.01 385.688 193.818 386.329 193.523 386.9L184.868 403.663C184.575 404.229 184.189 404.713 183.734 405.085C183.279 405.456 182.765 405.707 182.225 405.819C182.204 405.824 182.183 405.828 182.161 405.832C181.631 405.93 181.09 405.894 180.572 405.726C180.054 405.558 179.57 405.262 179.149 404.856Z" fill="#C0B9B9"/>
<path d="M184.277 298.085C184.189 297.77 184.161 297.435 184.195 297.105C184.23 296.775 184.325 296.459 184.475 296.181C184.624 295.903 184.824 295.671 185.058 295.502C185.292 295.333 185.555 295.231 185.826 295.206C186.381 295.243 186.924 295.417 187.423 295.718C187.921 296.019 188.365 296.441 188.727 296.957C189.468 298.004 190.332 298.912 191.289 299.651C192.281 300.262 193.625 300.175 194.191 299.009C194.721 297.914 194.358 296.448 194.036 295.176C193.219 291.94 192.761 288.583 192.676 285.198C192.584 281.419 193.019 277.475 194.729 274.527C196.935 270.723 200.88 269.279 204.613 269.383C208.347 269.488 212.02 270.899 215.718 271.79C216.994 272.098 218.495 272.256 219.349 271.045C220.257 269.757 219.923 267.673 219.537 265.934C218.535 261.423 217.472 256.758 215.143 253.115C212.626 249.329 209.03 246.851 205.079 246.18C201.286 245.605 197.436 246.14 193.845 247.741C187.995 249.998 182.847 254.387 179.09 260.322C175.217 266.633 173.543 274.565 174.435 282.382C175.306 289.191 178.254 295.342 182.684 299.596L184.277 298.085Z" fill="#1E1E1E"/>
<path d="M443.856 621.402C438.403 618.495 433.577 614.077 429.758 608.497C425.939 602.916 423.232 596.326 421.851 589.246C420.469 582.165 420.451 574.789 421.798 567.699C423.145 560.609 425.82 553.999 429.611 548.391C425.215 552.319 421.552 557.347 418.865 563.14C416.178 568.934 414.529 575.36 414.026 581.994C413.523 588.627 414.179 595.315 415.95 601.614C417.721 607.914 420.567 613.68 424.297 618.531C428.028 623.381 432.56 627.205 437.59 629.749C442.621 632.292 448.036 633.497 453.477 633.283C458.917 633.069 464.258 631.442 469.145 628.509C474.032 625.575 478.353 621.404 481.822 616.27C476.412 621.11 470.059 624.131 463.398 625.031C456.737 625.931 449.999 624.68 443.856 621.402Z" fill="#20435A"/>
</svg>
